<?xml version="1.0" encoding="UTF-8" standalone="no"?>
<!DOCTYPE svg PUBLIC "-//W3C//DTD SVG 1.1//EN" "http://www.w3.org/Graphics/SVG/1.1/DTD/svg11.dtd">
<svg width="100%" height="100%" viewBox="0 0 98 94" version="1.1" xmlns="http://www.w3.org/2000/svg" xmlns:xlink="http://www.w3.org/1999/xlink" xml:space="preserve" xmlns:serif="http://www.serif.com/" style="fill-rule:evenodd;clip-rule:evenodd;stroke-linejoin:round;stroke-miterlimit:2;">
    <g id="Layer-1" serif:id="Layer 1">
        <g transform="matrix(0,-1,-1,0,44,6)">
            <path d="M-29,-29C-45.017,-29 -58,-16.017 -58,0C-58,16.016 -45.017,29 -29,29C-12.984,29 0,16.016 0,0C0,-16.017 -12.984,-29 -29,-29" style="fill:rgb(36,131,197);fill-rule:nonzero;"/>
        </g>
        <g transform="matrix(1,0,0,1,44,64)">
            <path d="M0,-58C-15.991,-58 -29,-44.991 -29,-29C-29,-13.01 -15.991,0 0,0C15.99,0 29,-13.01 29,-29C29,-44.991 15.99,-58 0,-58M0,2C-17.093,2 -31,-11.906 -31,-29C-31,-46.093 -17.093,-60 0,-60C17.094,-60 31,-46.093 31,-29C31,-11.906 17.094,2 0,2" style="fill:rgb(16,56,90);fill-rule:nonzero;"/>
        </g>
        <g transform="matrix(1,0,0,1,12.2559,48.2642)">
            <path d="M0,4.729C-0.357,4.729 -0.702,4.538 -0.882,4.202C-1.347,3.336 -1.782,2.441 -2.175,1.54C-2.396,1.034 -2.165,0.444 -1.659,0.223C-1.154,0 -0.564,0.233 -0.342,0.739C0.03,1.59 0.441,2.438 0.88,3.256C1.141,3.743 0.958,4.349 0.472,4.61C0.321,4.691 0.16,4.729 0,4.729" style="fill:rgb(16,56,90);fill-rule:nonzero;"/>
        </g>
        <g transform="matrix(0,-1,-1,0,28,28)">
            <path d="M-1,-1C-1.552,-1 -2,-0.552 -2,0C-2,0.552 -1.552,1 -1,1C-0.448,1 0,0.552 0,0C0,-0.552 -0.448,-1 -1,-1" style="fill:rgb(172,214,242);fill-rule:nonzero;"/>
        </g>
        <g transform="matrix(0,-1,-1,0,64,43)">
            <path d="M-1,-1C-1.552,-1 -2,-0.553 -2,0C-2,0.553 -1.552,1 -1,1C-0.448,1 0,0.553 0,0C0,-0.553 -0.448,-1 -1,-1" style="fill:rgb(172,214,242);fill-rule:nonzero;"/>
        </g>
        <g transform="matrix(0,-1,-1,0,66,32)">
            <path d="M-1,-1C-1.552,-1 -2,-0.553 -2,0C-2,0.553 -1.552,1 -1,1C-0.448,1 0,0.553 0,0C0,-0.553 -0.448,-1 -1,-1" style="fill:rgb(172,214,242);fill-rule:nonzero;"/>
        </g>
        <g transform="matrix(0,-1,-1,0,28,43)">
            <path d="M-1,-1C-1.552,-1 -2,-0.552 -2,0C-2,0.552 -1.552,1 -1,1C-0.448,1 0,0.552 0,0C0,-0.552 -0.448,-1 -1,-1" style="fill:rgb(172,214,242);fill-rule:nonzero;"/>
        </g>
        <g transform="matrix(0,-1,-1,0,56,22)">
            <path d="M-1,-1C-1.552,-1 -2,-0.553 -2,0C-2,0.553 -1.552,1 -1,1C-0.448,1 0,0.553 0,0C0,-0.553 -0.448,-1 -1,-1" style="fill:rgb(172,214,242);fill-rule:nonzero;"/>
        </g>
        <g transform="matrix(0,-1,-1,0,35,18)">
            <path d="M-1,-1C-1.552,-1 -2,-0.552 -2,0C-2,0.552 -1.552,1 -1,1C-0.448,1 0,0.552 0,0C0,-0.552 -0.448,-1 -1,-1" style="fill:rgb(172,214,242);fill-rule:nonzero;"/>
        </g>
        <g transform="matrix(0,-1,-1,0,54,14)">
            <path d="M-1,-1C-1.552,-1 -2,-0.553 -2,0C-2,0.553 -1.552,1 -1,1C-0.448,1 0,0.553 0,0C0,-0.553 -0.448,-1 -1,-1" style="fill:rgb(172,214,242);fill-rule:nonzero;"/>
        </g>
        <g transform="matrix(0,-1,-1,0,58,36)">
            <path d="M-1,-1C-1.552,-1 -2,-0.553 -2,0C-2,0.553 -1.552,1 -1,1C-0.448,1 0,0.553 0,0C0,-0.553 -0.448,-1 -1,-1" style="fill:rgb(172,214,242);fill-rule:nonzero;"/>
        </g>
        <g transform="matrix(1,0,0,1,23,38)">
            <path d="M0,-2C-0.552,-2 -1,-2.448 -1,-3C-1,-3.552 -1.448,-4 -2,-4C-2.552,-4 -3,-3.552 -3,-3C-3,-2.448 -3.448,-2 -4,-2C-4.552,-2 -5,-1.552 -5,-1C-5,-0.448 -4.552,0 -4,0C-3.448,0 -3,0.448 -3,1C-3,1.552 -2.552,2 -2,2C-1.448,2 -1,1.552 -1,1C-1,0.448 -0.552,0 0,0C0.552,0 1,-0.448 1,-1C1,-1.552 0.552,-2 0,-2" style="fill:rgb(172,214,242);fill-rule:nonzero;"/>
        </g>
        <g transform="matrix(1,0,0,1,44,14)">
            <path d="M0,-2C-0.552,-2 -1,-2.448 -1,-3C-1,-3.552 -1.448,-4 -2,-4C-2.552,-4 -3,-3.552 -3,-3C-3,-2.448 -3.448,-2 -4,-2C-4.552,-2 -5,-1.552 -5,-1C-5,-0.448 -4.552,0 -4,0C-3.448,0 -3,0.448 -3,1C-3,1.552 -2.552,2 -2,2C-1.448,2 -1,1.552 -1,1C-1,0.448 -0.552,0 0,0C0.552,0 1,-0.448 1,-1C1,-1.552 0.552,-2 0,-2" style="fill:rgb(172,214,242);fill-rule:nonzero;"/>
        </g>
        <g transform="matrix(0,-1,-1,0,20,9)">
            <path d="M-7,-7C-10.866,-7 -14,-3.866 -14,0C-14,3.866 -10.866,7 -7,7C-3.134,7 0,3.866 0,0C0,-3.866 -3.134,-7 -7,-7" style="fill:rgb(239,76,78);fill-rule:nonzero;"/>
        </g>
        <g transform="matrix(1,0,0,1,20,23)">
            <path d="M0,-14C-3.86,-14 -7,-10.86 -7,-7C-7,-3.14 -3.86,0 0,0C3.86,0 7,-3.14 7,-7C7,-10.86 3.86,-14 0,-14M0,2C-4.962,2 -9,-2.038 -9,-7C-9,-11.962 -4.962,-16 0,-16C4.962,-16 9,-11.962 9,-7C9,-2.038 4.962,2 0,2" style="fill:rgb(16,56,90);fill-rule:nonzero;"/>
        </g>
        <g transform="matrix(1,0,0,1,23.8457,23.0003)">
            <path d="M0,-12.846C0.728,-11.742 1.154,-10.422 1.154,-9C1.154,-5.134 -1.979,-2 -5.846,-2C-7.267,-2 -8.587,-2.427 -9.691,-3.155C-8.439,-1.255 -6.291,0 -3.846,0C0.021,0 3.154,-3.134 3.154,-7C3.154,-9.445 1.899,-11.594 0,-12.846" style="fill:rgb(219,52,64);fill-rule:nonzero;"/>
        </g>
        <g transform="matrix(0,-1,-1,0,16,15)">
            <path d="M-1,-1C-1.552,-1 -2,-0.552 -2,0C-2,0.552 -1.552,1 -1,1C-0.448,1 0,0.552 0,0C0,-0.552 -0.448,-1 -1,-1" style="fill:rgb(219,52,64);fill-rule:nonzero;"/>
        </g>
        <g transform="matrix(0,-1,-1,0,22,13)">
            <path d="M-1,-1C-1.552,-1 -2,-0.552 -2,0C-2,0.552 -1.552,1 -1,1C-0.448,1 0,0.552 0,0C0,-0.552 -0.448,-1 -1,-1" style="fill:rgb(219,52,64);fill-rule:nonzero;"/>
        </g>
        <g transform="matrix(0,-1,-1,0,18.5,12)">
            <path d="M-0.5,-0.5C-0.776,-0.5 -1,-0.276 -1,0C-1,0.276 -0.776,0.5 -0.5,0.5C-0.224,0.5 0,0.276 0,0C0,-0.276 -0.224,-0.5 -0.5,-0.5" style="fill:rgb(219,52,64);fill-rule:nonzero;"/>
        </g>
        <g transform="matrix(0,-1,-1,0,18.5,18)">
            <path d="M-0.5,-0.5C-0.776,-0.5 -1,-0.276 -1,0C-1,0.276 -0.776,0.5 -0.5,0.5C-0.224,0.5 0,0.276 0,0C0,-0.276 -0.224,-0.5 -0.5,-0.5" style="fill:rgb(219,52,64);fill-rule:nonzero;"/>
        </g>
        <g transform="matrix(0,-1,-1,0,21.5,11)">
            <path d="M-0.5,-0.5C-0.776,-0.5 -1,-0.276 -1,0C-1,0.276 -0.776,0.5 -0.5,0.5C-0.224,0.5 0,0.276 0,0C0,-0.276 -0.224,-0.5 -0.5,-0.5" style="fill:rgb(219,52,64);fill-rule:nonzero;"/>
        </g>
        <g transform="matrix(0,-1,-1,0,78,20)">
            <path d="M-8,-8C-12.418,-8 -16,-4.418 -16,0C-16,4.418 -12.418,8 -8,8C-3.582,8 0,4.418 0,0C0,-4.418 -3.582,-8 -8,-8" style="fill:rgb(255,201,92);fill-rule:nonzero;"/>
        </g>
        <g transform="matrix(1,0,0,1,81.9512,36.0003)">
            <path d="M0,-14.951C0.664,-13.785 1.049,-12.439 1.049,-11C1.049,-6.582 -2.533,-3 -6.951,-3C-8.39,-3 -9.735,-3.385 -10.902,-4.05C-9.525,-1.633 -6.932,0 -3.951,0C0.467,0 4.049,-3.582 4.049,-8C4.049,-10.98 2.416,-13.575 0,-14.951" style="fill:rgb(244,179,68);fill-rule:nonzero;"/>
        </g>
        <g transform="matrix(1,0,0,1,91.9941,22.4672)">
            <path d="M0,11.066C-0.009,11.089 -0.076,11.169 -0.277,11.257C-1.157,11.644 -3.088,11.635 -5.731,11.157C-4.913,9.957 -4.358,8.569 -4.126,7.074C-0.7,9.287 0.12,10.756 0,11.066M-13.994,13.533C-17.719,13.533 -20.849,10.97 -21.734,7.518C-19.646,8.62 -17.516,9.569 -15.817,10.24C-13.861,11.012 -11.76,11.714 -9.709,12.277C-10.949,13.068 -12.417,13.533 -13.994,13.533M-27.988,0C-27.917,-0.189 -26.617,-0.889 -22.255,-0.094C-23.075,1.108 -23.631,2.499 -23.863,3.997C-26.861,2.059 -28.183,0.503 -27.988,0M-13.994,-2.467C-9.583,-2.467 -5.994,1.122 -5.994,5.533C-5.994,7.5 -6.711,9.3 -7.893,10.695C-10.013,10.18 -12.445,9.42 -15.083,8.379C-17.844,7.29 -20.125,6.181 -21.974,5.137C-21.766,0.91 -18.271,-2.467 -13.994,-2.467M-4.032,4.775C-4.422,-0.385 -8.736,-4.467 -13.994,-4.467C-16.598,-4.467 -18.964,-3.459 -20.745,-1.823C-20.764,-1.828 -20.776,-1.84 -20.795,-1.844C-24.432,-2.621 -28.957,-3.056 -29.854,-0.72C-30.685,1.432 -27.689,4.037 -23.957,6.271C-23.576,11.44 -19.259,15.533 -13.994,15.533C-11.39,15.533 -9.022,14.524 -7.241,12.887C-5.388,13.287 -3.649,13.531 -2.202,13.531C-1.104,13.531 -0.169,13.394 0.526,13.089C1.359,12.723 1.715,12.178 1.866,11.785C2.76,9.469 -0.806,6.714 -4.032,4.775" style="fill:rgb(16,56,90);fill-rule:nonzero;"/>
        </g>
        <g transform="matrix(0,-1,-1,0,8,34)">
            <path d="M-2,-2C-3.104,-2 -4,-1.104 -4,0C-4,1.104 -3.104,2 -2,2C-0.896,2 0,1.104 0,0C0,-1.104 -0.896,-2 -2,-2" style="fill:rgb(175,195,215);fill-rule:nonzero;"/>
        </g>
        <g transform="matrix(1,0,0,1,44,74.9629)">
            <path d="M0,9C-0.552,9 -1,8.553 -1,8L-1,1C-1,0.447 -0.552,0 0,0C0.552,0 1,0.447 1,1L1,8C1,8.553 0.552,9 0,9" style="fill:rgb(16,56,90);fill-rule:nonzero;"/>
        </g>
        <g transform="matrix(1,0,0,1,44,85)">
            <path d="M0,5C-0.552,5 -1,4.553 -1,4L-1,1C-1,0.447 -0.552,0 0,0C0.552,0 1,0.447 1,1L1,4C1,4.553 0.552,5 0,5" style="fill:rgb(16,56,90);fill-rule:nonzero;"/>
        </g>
        <g transform="matrix(1,0,0,1,37,27.8509)">
            <path d="M0,39.112L14,39.112L14,15.163C14,9.637 11.863,4.426 7.984,0.491C7.5,0 6.715,0.01 6.257,0.459C2.28,4.363 0,9.799 0,15.372L0,39.112Z" style="fill:rgb(235,238,247);fill-rule:nonzero;"/>
        </g>
        <g transform="matrix(1,0,0,1,46.9521,71.9629)">
            <path d="M0,-3L-5.937,-3L-6.233,-2.354C-6.578,-1.601 -6.799,-0.812 -6.896,0L0.983,0C0.878,-0.824 0.644,-1.634 0.291,-2.383L0,-3Z" style="fill:rgb(175,195,215);fill-rule:nonzero;"/>
        </g>
        <g transform="matrix(1,0,0,1,40.0557,68.9629)">
            <path d="M0,3L7.88,3C7.774,2.176 7.54,1.366 7.187,0.617L6.896,0L0.959,0L0.664,0.646C0.319,1.399 0.097,2.188 0,3M8.944,5L-1.056,5C-1.608,5 -2.056,4.553 -2.056,4L-2.056,3.946C-2.056,2.511 -1.752,1.12 -1.155,-0.186L-0.592,-1.416C-0.43,-1.771 -0.074,-2 0.317,-2L7.53,-2C7.917,-2 8.27,-1.776 8.435,-1.426L8.996,-0.235C9.616,1.081 9.944,2.545 9.944,4C9.944,4.553 9.497,5 8.944,5" style="fill:rgb(16,56,90);fill-rule:nonzero;"/>
        </g>
        <g transform="matrix(1,0,0,1,46.668,68.9782)">
            <path d="M0,2.97L0.004,2.985L1.268,2.985C1.162,2.16 0.928,1.351 0.575,0.603L0.284,-0.015L-5.653,-0.015L-5.949,0.631C-6.002,0.746 -6.052,0.868 -6.099,0.985L-2.671,0.985C-1.441,0.985 -0.321,1.783 0,2.97" style="fill:rgb(145,172,195);fill-rule:nonzero;"/>
        </g>
        <g transform="matrix(0,-1,-1,0,36.0655,58.8974)">
            <path d="M-5.066,1.066L1.066,1.066L-1.601,5.066L-5.066,5.066L-5.066,1.066Z" style="fill:rgb(175,195,215);fill-rule:nonzero;"/>
        </g>
        <g transform="matrix(1,0,0,1,48,74.9629)">
            <path d="M0,5C-0.553,5 -1,4.553 -1,4L-1,1C-1,0.447 -0.553,0 0,0C0.553,0 1,0.447 1,1L1,4C1,4.553 0.553,5 0,5" style="fill:rgb(16,56,90);fill-rule:nonzero;"/>
        </g>
        <g transform="matrix(1,0,0,1,40,74.9629)">
            <path d="M0,5C-0.552,5 -1,4.553 -1,4L-1,1C-1,0.447 -0.552,0 0,0C0.552,0 1,0.447 1,1L1,4C1,4.553 0.552,5 0,5" style="fill:rgb(16,56,90);fill-rule:nonzero;"/>
        </g>
        <g transform="matrix(1,0,0,1,27,69.9629)">
            <path d="M0,5C-0.552,5 -1,4.553 -1,4L-1,1C-1,0.448 -0.552,0 0,0C0.552,0 1,0.448 1,1L1,4C1,4.553 0.552,5 0,5" style="fill:rgb(16,56,90);fill-rule:nonzero;"/>
        </g>
        <g transform="matrix(-1,0,0,1,88,36.926)">
            <rect x="37" y="27.037" width="14" height="3" style="fill:rgb(239,76,78);"/>
        </g>
        <g transform="matrix(0,-1,-1,0,58.0655,58.8974)">
            <path d="M-5.066,1.066L-1.601,1.066L1.066,5.066L-5.066,5.066L-5.066,1.066Z" style="fill:rgb(175,195,215);fill-rule:nonzero;"/>
        </g>
        <g transform="matrix(1,0,0,1,63,64.7931)">
            <path d="M0,-9.587C0,-10.121 -0.208,-10.623 -0.586,-11.002C-1.342,-11.757 -2.658,-11.757 -3.414,-11.002C-3.792,-10.623 -4,-10.121 -4,-9.587L-4,2.17L0,2.17L0,-9.587Z" style="fill:rgb(235,238,247);fill-rule:nonzero;"/>
        </g>
        <g transform="matrix(1,0,0,1,61,69.9629)">
            <path d="M0,5C-0.553,5 -1,4.553 -1,4L-1,1C-1,0.448 -0.553,0 0,0C0.553,0 1,0.448 1,1L1,4C1,4.553 0.553,5 0,5" style="fill:rgb(16,56,90);fill-rule:nonzero;"/>
        </g>
        <g transform="matrix(0,-1,-1,0,44,52.9629)">
            <path d="M-1,-1C-1.553,-1 -2,-0.552 -2,0C-2,0.552 -1.553,1 -1,1C-0.448,1 0,0.552 0,0C0,-0.552 -0.448,-1 -1,-1" style="fill:rgb(16,56,90);fill-rule:nonzero;"/>
        </g>
        <g transform="matrix(0,-1,-1,0,44,55.9629)">
            <path d="M-1,-1C-1.553,-1 -2,-0.552 -2,0C-2,0.552 -1.553,1 -1,1C-0.448,1 0,0.552 0,0C0,-0.552 -0.448,-1 -1,-1" style="fill:rgb(16,56,90);fill-rule:nonzero;"/>
        </g>
        <g transform="matrix(0,-1,-1,0,44,58.9629)">
            <path d="M-1,-1C-1.553,-1 -2,-0.552 -2,0C-2,0.552 -1.553,1 -1,1C-0.448,1 0,0.552 0,0C0,-0.552 -0.448,-1 -1,-1" style="fill:rgb(16,56,90);fill-rule:nonzero;"/>
        </g>
        <g transform="matrix(0,-1,-1,0,27,75.9629)">
            <path d="M-1,-1C-1.553,-1 -2,-0.552 -2,0C-2,0.552 -1.553,1 -1,1C-0.448,1 0,0.552 0,0C0,-0.552 -0.448,-1 -1,-1" style="fill:rgb(16,56,90);fill-rule:nonzero;"/>
        </g>
        <g transform="matrix(0,-1,-1,0,61,75.9629)">
            <path d="M-1,-1C-1.553,-1 -2,-0.553 -2,0C-2,0.553 -1.553,1 -1,1C-0.448,1 0,0.553 0,0C0,-0.553 -0.448,-1 -1,-1" style="fill:rgb(16,56,90);fill-rule:nonzero;"/>
        </g>
        <g transform="matrix(-0.761205,0.648511,0.648511,0.761205,46.9757,34.1377)">
            <path d="M-0.948,-6.848C2.124,-6.632 5.112,-5.729 7.78,-4.23L-0.948,3.206C-2.023,0.381 -2.471,-2.669 -2.247,-5.693C-2.191,-6.388 -1.592,-6.892 -0.948,-6.848" style="fill:rgb(239,76,78);fill-rule:nonzero;"/>
        </g>
        <g transform="matrix(1,0,0,1,47,66.9629)">
            <path d="M0,-3L0,-2C0,-1.447 -0.448,-1 -1,-1L-10,-1L-10,0L4,0L4,-3L0,-3Z" style="fill:rgb(219,52,64);fill-rule:nonzero;"/>
        </g>
        <g transform="matrix(1,0,0,1,0,36.926)">
            <rect x="59" y="27.037" width="4" height="3" style="fill:rgb(239,76,78);"/>
        </g>
        <g transform="matrix(1,0,0,1,61,66.9629)">
            <path d="M0,-3C0,-1.896 -0.896,-1 -2,-1L-2,0L2,0L2,-3L0,-3Z" style="fill:rgb(219,52,64);fill-rule:nonzero;"/>
        </g>
        <g transform="matrix(1,0,0,1,54,63.296)">
            <path d="M0,-4.798L-1,-5.465L-1,0.667L3,0.667L3,-0.333L1,-0.333C0.447,-0.333 0,-0.78 0,-1.333L0,-4.798Z" style="fill:rgb(145,172,195);fill-rule:nonzero;"/>
        </g>
        <g transform="matrix(1,0,0,1,33,60.8319)">
            <path d="M0,2.131C-0.552,2.131 -1,1.684 -1,1.131L-1,-1L-2,-0.334L-2,3.131L2,3.131L2,2.131L0,2.131Z" style="fill:rgb(145,172,195);fill-rule:nonzero;"/>
        </g>
        <g transform="matrix(-0.978488,0.206302,0.206302,0.978488,48.8236,35.0855)">
            <path d="M2.365,-7.391C2.715,-7.933 3.415,-8.1 3.945,-7.837C2.865,-5.226 2.329,-2.422 2.365,0.399L-0.734,1.052C-0.328,-1.919 0.7,-4.795 2.365,-7.391" style="fill:rgb(219,52,64);fill-rule:nonzero;"/>
        </g>
        <g transform="matrix(1,0,0,1,47,37.9629)">
            <path d="M0,24L4,24L4,5.051C4,3.325 3.768,1.636 3.362,0L-0.112,0C-0.046,0.679 0,1.361 0,2.051L0,24Z" style="fill:rgb(204,217,228);fill-rule:nonzero;"/>
        </g>
        <g transform="matrix(0,-1,-1,0,44,43.9634)">
            <path d="M-3,-3C-4.657,-3 -6,-1.657 -6,0C-6,1.657 -4.657,3 -3,3C-1.343,3 0,1.657 0,0C0,-1.657 -1.343,-3 -3,-3" style="fill:rgb(172,214,242);fill-rule:nonzero;"/>
        </g>
        <g transform="matrix(1,0,0,1,42,45.5264)">
            <path d="M0,2.437C0,0.78 1.343,-0.563 3,-0.563C3.571,-0.563 4.108,-0.398 4.562,-0.122C4.036,-0.985 3.085,-1.563 2,-1.563C0.343,-1.563 -1,-0.22 -1,1.437C-1,2.522 -0.422,3.473 0.442,4C0.165,3.545 0,3.008 0,2.437" style="fill:rgb(112,182,228);fill-rule:nonzero;"/>
        </g>
        <g transform="matrix(1,0,0,1,63,54.0059)">
            <path d="M0,7.957L0,1.2C0,1.155 -0.011,1.104 -0.029,1.049C-0.39,0 -2,0.369 -2,1.478L-2,7.957L0,7.957Z" style="fill:rgb(204,217,228);fill-rule:nonzero;"/>
        </g>
        <g transform="matrix(1,0,0,1,29,64.7931)">
            <path d="M0,-9.587C0,-10.121 -0.208,-10.623 -0.586,-11.002C-1.342,-11.757 -2.658,-11.757 -3.414,-11.002C-3.792,-10.623 -4,-10.121 -4,-9.587L-4,2.17L0,2.17L0,-9.587Z" style="fill:rgb(235,238,247);fill-rule:nonzero;"/>
        </g>
        <g transform="matrix(1,0,0,1,0,36.926)">
            <rect x="25" y="27.037" width="4" height="3" style="fill:rgb(239,76,78);"/>
        </g>
        <g transform="matrix(1,0,0,1,27,66.9629)">
            <path d="M0,-3C0,-1.896 -0.896,-1 -2,-1L-2,0L2,0L2,-3L0,-3Z" style="fill:rgb(219,52,64);fill-rule:nonzero;"/>
        </g>
        <g transform="matrix(1,0,0,1,0,0.654)">
            <path d="M59,63.309L63,63.309L63,66.309L59,66.309L59,63.309ZM53,63.309L53,57.178L57,59.844L57,63.309L53,63.309ZM59,54.552C59,54.018 59.208,53.516 59.586,53.137C60.342,52.382 61.658,52.382 62.414,53.137C62.792,53.516 63,54.018 63,54.552L63,61.309L59,61.309L59,54.552ZM51,61.309L37,61.309L37,42.569C37,40.784 37.258,39.02 37.707,37.309L50.362,37.309C50.768,38.945 51,40.634 51,42.36L51,61.309ZM51,66.309L37,66.309L37,63.309L51,63.309L51,66.309ZM43.257,27.656C43.715,27.207 44.5,27.197 44.984,27.688C47.148,29.884 48.748,32.486 49.759,35.309L38.338,35.309C39.401,32.45 41.058,29.815 43.257,27.656M35,63.309L31,63.309L31,59.844L35,57.178L35,63.309ZM29,66.309L25,66.309L25,63.309L29,63.309L29,66.309ZM25.586,53.137C26.342,52.382 27.658,52.382 28.414,53.137C28.792,53.516 29,54.018 29,54.552L29,61.309L25,61.309L25,54.552C25,54.018 25.208,53.516 25.586,53.137M63.828,51.723C62.318,50.212 59.682,50.212 58.172,51.723C57.416,52.48 57,53.484 57,54.552L57,57.441L53,54.774L53,42.36C53,36.305 50.659,30.596 46.392,26.266C45.197,25.054 43.068,25.037 41.855,26.229C37.499,30.507 35,36.463 35,42.569L35,54.774L31,57.441L31,54.552C31,53.484 30.584,52.48 29.828,51.723C28.318,50.212 25.682,50.212 24.172,51.723C23.416,52.48 23,53.484 23,54.552L23,67.309C23,67.862 23.447,68.309 24,68.309L30,68.309C30.553,68.309 31,67.862 31,67.309L31,65.309L35,65.309L35,67.309C35,67.862 35.448,68.309 36,68.309L52,68.309C52.553,68.309 53,67.862 53,67.309L53,65.309L57,65.309L57,67.309C57,67.862 57.447,68.309 58,68.309L64,68.309C64.553,68.309 65,67.862 65,67.309L65,54.552C65,53.484 64.584,52.48 63.828,51.723" style="fill:rgb(16,56,90);fill-rule:nonzero;"/>
        </g>
        <g transform="matrix(1,0,0,1,44,49.9634)">
            <path d="M0,-6C-1.654,-6 -3,-4.654 -3,-3C-3,-1.346 -1.654,0 0,0C1.654,0 3,-1.346 3,-3C3,-4.654 1.654,-6 0,-6M0,2C-2.757,2 -5,-0.244 -5,-3C-5,-5.757 -2.757,-8 0,-8C2.757,-8 5,-5.757 5,-3C5,-0.244 2.757,2 0,2" style="fill:rgb(16,56,90);fill-rule:nonzero;"/>
        </g>
        <g transform="matrix(1,0,0,1,29,54.0059)">
            <path d="M0,7.957L0,1.2C0,1.155 -0.01,1.104 -0.029,1.049C-0.39,0 -2,0.369 -2,1.478L-2,7.957L0,7.957Z" style="fill:rgb(204,217,228);fill-rule:nonzero;"/>
        </g>
        <g transform="matrix(1,0,0,1,8,40.999)">
            <path d="M0,-2.999C-1.103,-2.999 -2,-3.896 -2,-4.999C-2,-6.102 -1.103,-6.999 0,-6.999C1.103,-6.999 2,-6.102 2,-4.999C2,-3.896 1.103,-2.999 0,-2.999M4,-4.999C4,-7.205 2.206,-8.999 0,-8.999C-2.206,-8.999 -4,-7.205 -4,-4.999C-4,-3.014 -2.543,-1.375 -0.645,-1.064C-0.408,0.744 -0.058,2.531 0.447,4.279C0.545,4.623 0.65,4.964 0.758,5.304C0.894,5.729 1.287,6 1.711,6C1.812,6 1.914,5.984 2.015,5.952C2.542,5.784 2.832,5.221 2.664,4.695C2.561,4.375 2.462,4.052 2.369,3.726C1.899,2.098 1.57,0.434 1.347,-1.249C2.889,-1.805 4,-3.268 4,-4.999" style="fill:rgb(16,56,90);fill-rule:nonzero;"/>
        </g>
    </g>
</svg>
