<?xml version="1.0" standalone="no"?>
<!DOCTYPE svg PUBLIC "-//W3C//DTD SVG 20010904//EN"
 "http://www.w3.org/TR/2001/REC-SVG-20010904/DTD/svg10.dtd">
<svg version="1.0" xmlns="http://www.w3.org/2000/svg"
 width="640.000000pt" height="640.000000pt" viewBox="0 0 640.000000 640.000000"
 preserveAspectRatio="xMidYMid meet">
<metadata>
Created by potrace 1.14, written by Peter Selinger 2001-2017
</metadata>
<g transform="translate(0.000000,640.000000) scale(0.100000,-0.100000)"
fill="#000000" stroke="none">
<path d="M365 6276 c-104 -33 -177 -95 -219 -185 l-21 -46 0 -2845 0 -2845 22
-47 c32 -70 94 -131 166 -164 l62 -29 2825 0 2825 0 56 26 c76 36 133 90 166
157 l28 57 0 2845 0 2845 -22 47 c-32 70 -94 131 -166 164 l-62 29 -2810 2
c-2250 1 -2818 -1 -2850 -11z m2901 -1179 c35 -21 69 -51 90 -82 28 -39 1956
-3380 1989 -3446 73 -143 19 -258 -129 -278 -31 -4 -181 -4 -334 0 -347 10
-554 35 -757 94 -527 152 -785 507 -814 1120 l-6 130 -106 3 -106 3 -6 -128
c-22 -430 -150 -729 -392 -918 -277 -215 -634 -300 -1281 -306 -250 -3 -252
-3 -299 22 -70 36 -90 67 -89 142 0 47 7 75 28 115 26 51 1890 3283 1963 3405
38 64 62 89 108 118 34 22 109 25 141 6z"/>
<path d="M3066 4473 c-155 -162 -241 -274 -305 -400 -91 -182 -119 -389 -81
-610 9 -49 7 -56 -21 -101 -53 -86 -108 -284 -125 -453 l-6 -66 28 3 c129 15
293 36 310 40 17 4 29 -7 64 -61 70 -107 65 -105 261 -105 92 0 179 4 192 9
15 6 45 41 73 86 46 73 50 76 79 70 105 -21 324 -43 326 -32 4 16 -13 146 -27
217 -27 132 -68 249 -106 303 -20 27 -20 33 -8 139 42 366 -60 615 -396 966
-81 84 -92 92 -126 92 -34 0 -46 -9 -132 -97z m202 -593 c94 -57 94 -183 0
-240 -117 -71 -259 71 -188 188 26 42 76 72 120 72 19 0 50 -9 68 -20z"/>
</g>
</svg>
