<?xml version="1.0" encoding="UTF-8" standalone="no"?>
<!DOCTYPE svg PUBLIC "-//W3C//DTD SVG 1.1//EN" "http://www.w3.org/Graphics/SVG/1.1/DTD/svg11.dtd">
<svg width="100%" height="100%" viewBox="0 0 132 92" version="1.1" xmlns="http://www.w3.org/2000/svg" xmlns:xlink="http://www.w3.org/1999/xlink" xml:space="preserve" xmlns:serif="http://www.serif.com/" style="fill-rule:evenodd;clip-rule:evenodd;stroke-linejoin:round;stroke-miterlimit:2;">
    <g id="Layer-1" serif:id="Layer 1">
        <g transform="matrix(1,0,0,1,10.311,38.0002)">
            <path d="M0,7.906C1.679,7.025 3.655,6.768 5.539,7.22C6.888,5.315 8.835,3.955 11.067,3.352C10.072,1.335 7.991,0 5.689,0C2.38,0 -0.311,2.691 -0.311,6C-0.311,6.649 -0.205,7.294 0,7.906" style="fill:rgb(255,201,92);fill-rule:nonzero;"/>
        </g>
        <g transform="matrix(0.982098,-0.18837,-0.18837,-0.982098,20.307,43.0668)">
            <path d="M-0.379,0.135C0.247,0.319 0.892,0.446 1.557,0.489C1.408,1.979 0.707,3.347 -0.379,4.334C-0.004,3.336 0.115,2.229 -0.1,1.105C-0.165,0.768 -0.262,0.447 -0.379,0.135" style="fill:rgb(244,179,68);fill-rule:nonzero;"/>
        </g>
        <g transform="matrix(1,0,0,1,42,29)">
            <path d="M0,-2C-0.552,-2 -1,-2.448 -1,-3C-1,-3.552 -1.448,-4 -2,-4C-2.552,-4 -3,-3.552 -3,-3C-3,-2.448 -3.448,-2 -4,-2C-4.552,-2 -5,-1.552 -5,-1C-5,-0.448 -4.552,0 -4,0C-3.448,0 -3,0.448 -3,1C-3,1.552 -2.552,2 -2,2C-1.448,2 -1,1.552 -1,1C-1,0.448 -0.552,0 0,0C0.552,0 1,-0.448 1,-1C1,-1.552 0.552,-2 0,-2" style="fill:rgb(16,56,90);fill-rule:nonzero;"/>
        </g>
        <g transform="matrix(1,0,0,1,56,14)">
            <path d="M0,-2C-0.552,-2 -1,-2.448 -1,-3C-1,-3.552 -1.448,-4 -2,-4C-2.552,-4 -3,-3.552 -3,-3C-3,-2.448 -3.448,-2 -4,-2C-4.552,-2 -5,-1.552 -5,-1C-5,-0.448 -4.552,0 -4,0C-3.448,0 -3,0.448 -3,1C-3,1.552 -2.552,2 -2,2C-1.448,2 -1,1.552 -1,1C-1,0.448 -0.552,0 0,0C0.552,0 1,-0.448 1,-1C1,-1.552 0.552,-2 0,-2" style="fill:rgb(16,56,90);fill-rule:nonzero;"/>
        </g>
        <g transform="matrix(1,0,0,1,93,28)">
            <path d="M0,-2C-0.553,-2 -1,-2.448 -1,-3C-1,-3.552 -1.447,-4 -2,-4C-2.553,-4 -3,-3.552 -3,-3C-3,-2.448 -3.447,-2 -4,-2C-4.553,-2 -5,-1.552 -5,-1C-5,-0.448 -4.553,0 -4,0C-3.447,0 -3,0.448 -3,1C-3,1.552 -2.553,2 -2,2C-1.447,2 -1,1.552 -1,1C-1,0.448 -0.553,0 0,0C0.553,0 1,-0.448 1,-1C1,-1.552 0.553,-2 0,-2" style="fill:rgb(16,56,90);fill-rule:nonzero;"/>
        </g>
        <g transform="matrix(1,0,0,1,84,9)">
            <path d="M0,-2C-0.553,-2 -1,-2.448 -1,-3C-1,-3.552 -1.447,-4 -2,-4C-2.553,-4 -3,-3.552 -3,-3C-3,-2.448 -3.447,-2 -4,-2C-4.553,-2 -5,-1.552 -5,-1C-5,-0.448 -4.553,0 -4,0C-3.447,0 -3,0.448 -3,1C-3,1.552 -2.553,2 -2,2C-1.447,2 -1,1.552 -1,1C-1,0.448 -0.553,0 0,0C0.553,0 1,-0.448 1,-1C1,-1.552 0.553,-2 0,-2" style="fill:rgb(16,56,90);fill-rule:nonzero;"/>
        </g>
        <g transform="matrix(0,-1,-1,0,14,64)">
            <path d="M-1,-1C-1.553,-1 -2,-0.552 -2,0C-2,0.552 -1.553,1 -1,1C-0.447,1 0,0.552 0,0C0,-0.552 -0.447,-1 -1,-1" style="fill:rgb(16,56,90);fill-rule:nonzero;"/>
        </g>
        <g transform="matrix(1,0,0,1,20,60)">
            <path d="M0,2L-14,2C-14.552,2 -15,1.553 -15,1C-15,0.447 -14.552,0 -14,0L0,0C0.552,0 1,0.447 1,1C1,1.553 0.552,2 0,2" style="fill:rgb(16,56,90);fill-rule:nonzero;"/>
        </g>
        <g transform="matrix(1,0,0,1,31,64)">
            <path d="M0,2L-13,2C-13.552,2 -14,1.553 -14,1C-14,0.447 -13.552,0 -13,0L0,0C0.552,0 1,0.447 1,1C1,1.553 0.552,2 0,2" style="fill:rgb(16,56,90);fill-rule:nonzero;"/>
        </g>
        <g transform="matrix(1,0,0,1,123,41)">
            <path d="M0,2L-6.071,2C-6.558,-1.388 -9.479,-4 -13,-4C-15.491,-4 -17.814,-2.659 -19.062,-0.501C-19.096,-0.444 -19.103,-0.381 -19.123,-0.321C-19.572,-0.437 -20.035,-0.5 -20.5,-0.5C-22.622,-0.5 -24.468,0.708 -25.385,2.473C-25.851,2.174 -26.405,2 -27,2C-28.654,2 -30,3.346 -30,5C-30,5.552 -29.553,6 -29,6C-28.447,6 -28,5.552 -28,5C-28,4.449 -27.552,4 -27,4C-26.448,4 -26,4.449 -26,5C-26,5.552 -25.553,6 -25,6C-24.447,6 -24,5.552 -24,5C-24,3.07 -22.43,1.5 -20.5,1.5C-19.935,1.5 -19.396,1.63 -18.898,1.887C-18.238,2.228 -17.693,2.781 -17.363,3.445C-17.117,3.94 -16.521,4.143 -16.022,3.896C-15.528,3.65 -15.326,3.05 -15.572,2.556C-15.979,1.738 -16.596,1.035 -17.34,0.509C-17.338,0.505 -17.334,0.503 -17.332,0.5C-16.439,-1.042 -14.78,-2 -13,-2C-10.243,-2 -8,0.243 -8,3C-8,3.552 -7.553,4 -7,4L0,4C0.553,4 1,3.552 1,3C1,2.448 0.553,2 0,2" style="fill:rgb(16,56,90);fill-rule:nonzero;"/>
        </g>
        <g transform="matrix(-1,0,0,1,126,45)">
            <path d="M0,-2C0.553,-2 1,-1.552 1,-1C1,-0.448 0.553,0 0,0C-0.553,0 -1,-0.448 -1,-1C-1,-1.552 -0.553,-2 0,-2" style="fill:rgb(16,56,90);fill-rule:nonzero;"/>
        </g>
        <g transform="matrix(1,0,0,1,103,55)">
            <path d="M0,0C0,-0.553 -0.447,-1 -1,-1L-11,-1C-11.553,-1 -12,-0.553 -12,0C-12,0.553 -11.553,1 -11,1L-1,1C-0.447,1 0,0.553 0,0" style="fill:rgb(16,56,90);fill-rule:nonzero;"/>
        </g>
        <g transform="matrix(1,0,0,1,109,59)">
            <path d="M0,0C0,-0.553 -0.447,-1 -1,-1L-11,-1C-11.553,-1 -12,-0.553 -12,0C-12,0.553 -11.553,1 -11,1L-1,1C-0.447,1 0,0.553 0,0" style="fill:rgb(16,56,90);fill-rule:nonzero;"/>
        </g>
        <g transform="matrix(1,0,0,1,116,54)">
            <path d="M0,2C0.553,2 1,1.553 1,1C1,0.447 0.553,0 0,0L-5,0C-5.553,0 -6,0.447 -6,1C-6,1.553 -5.553,2 -5,2L0,2Z" style="fill:rgb(16,56,90);fill-rule:nonzero;"/>
        </g>
        <g transform="matrix(1,0,0,1,115,64)">
            <path d="M0,-5C-1.86,-5 -3.429,-3.724 -3.873,-2L-8,-2C-8.553,-2 -9,-1.553 -9,-1C-9,-0.447 -8.553,0 -8,0L-3,0C-2.447,0 -2,-0.447 -2,-1C-2,-2.103 -1.103,-3 0,-3C1.103,-3 2,-2.103 2,-1C2,-0.447 2.447,0 3,0C3.553,0 4,-0.447 4,-1C4,-3.206 2.206,-5 0,-5" style="fill:rgb(16,56,90);fill-rule:nonzero;"/>
        </g>
        <g transform="matrix(1,0,0,1,16,46.363)">
            <path d="M0,-8.363C-3.309,-8.363 -6,-5.672 -6,-2.363C-6,-1.714 -5.894,-1.069 -5.689,-0.457C-4.01,-1.338 -2.034,-1.594 -0.15,-1.142C1.199,-3.048 3.146,-4.407 5.378,-5.011C4.383,-7.028 2.302,-8.363 0,-8.363M-6.139,2C-6.21,2 -6.283,1.992 -6.354,1.977C-6.635,1.914 -6.876,1.735 -7.015,1.482C-7.66,0.309 -8,-1.02 -8,-2.363C-8,-6.774 -4.411,-10.363 0,-10.363C3.559,-10.363 6.723,-7.969 7.693,-4.542C7.771,-4.264 7.726,-3.966 7.568,-3.724C7.411,-3.482 7.157,-3.32 6.871,-3.28C4.479,-2.94 2.39,-1.549 1.14,0.539C0.897,0.945 0.402,1.123 -0.045,0.97C-1.93,0.321 -3.972,0.649 -5.546,1.806C-5.72,1.933 -5.927,2 -6.139,2" style="fill:rgb(16,56,90);fill-rule:nonzero;"/>
        </g>
        <g transform="matrix(1,0,0,1,33.1577,48.998)">
            <path d="M0,-1.996C-1.58,-5.615 -5.171,-7.998 -9.158,-7.998C-12.439,-7.998 -15.433,-6.434 -17.309,-3.777C-17.917,-3.924 -18.537,-3.998 -19.158,-3.998C-23.569,-3.998 -27.158,-0.409 -27.158,4.002C-27.158,4.555 -26.71,5.002 -26.158,5.002C-25.605,5.002 -25.158,4.555 -25.158,4.002C-25.158,0.693 -22.466,-1.998 -19.158,-1.998C-18.884,-1.998 -18.611,-1.967 -18.338,-1.929C-18.861,-0.721 -19.158,0.605 -19.158,2.002C-19.158,2.555 -18.71,3.002 -18.158,3.002C-17.605,3.002 -17.158,2.555 -17.158,2.002C-17.158,0.482 -16.724,-0.935 -15.984,-2.146C-15.82,-2.415 -15.642,-2.673 -15.452,-2.917C-15.436,-2.938 -15.422,-2.96 -15.406,-2.98C-13.896,-4.887 -11.629,-5.998 -9.158,-5.998C-6.166,-5.998 -3.457,-4.316 -2.09,-1.717C-3.343,-1.355 -4.489,-0.655 -5.375,0.335C-5.743,0.747 -5.708,1.379 -5.297,1.747C-5.106,1.918 -4.868,2.002 -4.63,2.002C-4.355,2.002 -4.082,1.89 -3.885,1.669C-2.937,0.609 -1.578,0.002 -0.158,0.002C2.599,0.002 4.842,2.245 4.842,5.002C4.842,5.555 5.29,6.002 5.842,6.002C6.395,6.002 6.842,5.555 6.842,5.002C6.842,1.194 3.787,-1.912 0,-1.996" style="fill:rgb(16,56,90);fill-rule:nonzero;"/>
        </g>
        <g transform="matrix(1,0,0,1,66,71.9629)">
            <path d="M0,9C-0.552,9 -1,8.553 -1,8L-1,1C-1,0.447 -0.552,0 0,0C0.552,0 1,0.447 1,1L1,8C1,8.553 0.552,9 0,9" style="fill:rgb(16,56,90);fill-rule:nonzero;"/>
        </g>
        <g transform="matrix(1,0,0,1,66,82)">
            <path d="M0,5C-0.552,5 -1,4.553 -1,4L-1,1C-1,0.447 -0.552,0 0,0C0.552,0 1,0.447 1,1L1,4C1,4.553 0.552,5 0,5" style="fill:rgb(16,56,90);fill-rule:nonzero;"/>
        </g>
        <g transform="matrix(1,0,0,1,59,24.8509)">
            <path d="M0,39.112L14,39.112L14,15.163C14,9.637 11.863,4.426 7.984,0.491C7.5,0 6.715,0.01 6.257,0.459C2.28,4.363 0,9.799 0,15.372L0,39.112Z" style="fill:rgb(235,238,247);fill-rule:nonzero;"/>
        </g>
        <g transform="matrix(1,0,0,1,68.9521,68.9629)">
            <path d="M0,-3L-5.937,-3L-6.233,-2.354C-6.578,-1.601 -6.799,-0.812 -6.896,0L0.983,0C0.878,-0.824 0.644,-1.634 0.291,-2.383L0,-3Z" style="fill:rgb(175,195,215);fill-rule:nonzero;"/>
        </g>
        <g transform="matrix(1,0,0,1,62.0557,65.9629)">
            <path d="M0,3L7.88,3C7.774,2.176 7.54,1.366 7.187,0.617L6.896,0L0.959,0L0.664,0.646C0.319,1.399 0.097,2.188 0,3M8.944,5L-1.056,5C-1.608,5 -2.056,4.553 -2.056,4L-2.056,3.946C-2.056,2.511 -1.752,1.12 -1.155,-0.186L-0.592,-1.416C-0.43,-1.771 -0.074,-2 0.317,-2L7.53,-2C7.917,-2 8.27,-1.776 8.435,-1.426L8.996,-0.235C9.616,1.081 9.944,2.545 9.944,4C9.944,4.553 9.497,5 8.944,5" style="fill:rgb(16,56,90);fill-rule:nonzero;"/>
        </g>
        <g transform="matrix(1,0,0,1,68.668,65.9782)">
            <path d="M0,2.97L0.004,2.985L1.268,2.985C1.162,2.16 0.928,1.351 0.575,0.603L0.284,-0.015L-5.653,-0.015L-5.949,0.631C-6.002,0.746 -6.052,0.868 -6.099,0.985L-2.671,0.985C-1.441,0.985 -0.321,1.783 0,2.97" style="fill:rgb(145,172,195);fill-rule:nonzero;"/>
        </g>
        <g transform="matrix(0,-1,-1,0,58.0655,55.8974)">
            <path d="M-5.066,1.066L1.066,1.066L-1.601,5.066L-5.066,5.066L-5.066,1.066Z" style="fill:rgb(175,195,215);fill-rule:nonzero;"/>
        </g>
        <g transform="matrix(1,0,0,1,70,71.9629)">
            <path d="M0,5C-0.553,5 -1,4.553 -1,4L-1,1C-1,0.447 -0.553,0 0,0C0.553,0 1,0.447 1,1L1,4C1,4.553 0.553,5 0,5" style="fill:rgb(16,56,90);fill-rule:nonzero;"/>
        </g>
        <g transform="matrix(1,0,0,1,62,71.9629)">
            <path d="M0,5C-0.552,5 -1,4.553 -1,4L-1,1C-1,0.447 -0.552,0 0,0C0.552,0 1,0.447 1,1L1,4C1,4.553 0.552,5 0,5" style="fill:rgb(16,56,90);fill-rule:nonzero;"/>
        </g>
        <g transform="matrix(1,0,0,1,49,66.9629)">
            <path d="M0,5C-0.552,5 -1,4.553 -1,4L-1,1C-1,0.448 -0.552,0 0,0C0.552,0 1,0.448 1,1L1,4C1,4.553 0.552,5 0,5" style="fill:rgb(16,56,90);fill-rule:nonzero;"/>
        </g>
        <g transform="matrix(-1,0,0,1,132,32.926)">
            <rect x="59" y="28.037" width="14" height="3" style="fill:rgb(239,76,78);"/>
        </g>
        <g transform="matrix(0,-1,-1,0,80.0655,55.8974)">
            <path d="M-5.066,1.066L-1.601,1.066L1.066,5.066L-5.066,5.066L-5.066,1.066Z" style="fill:rgb(175,195,215);fill-rule:nonzero;"/>
        </g>
        <g transform="matrix(1,0,0,1,85,61.7931)">
            <path d="M0,-9.587C0,-10.121 -0.208,-10.623 -0.586,-11.002C-1.342,-11.757 -2.658,-11.757 -3.414,-11.002C-3.792,-10.623 -4,-10.121 -4,-9.587L-4,2.17L0,2.17L0,-9.587Z" style="fill:rgb(235,238,247);fill-rule:nonzero;"/>
        </g>
        <g transform="matrix(1,0,0,1,83,66.9629)">
            <path d="M0,5C-0.553,5 -1,4.553 -1,4L-1,1C-1,0.448 -0.553,0 0,0C0.553,0 1,0.448 1,1L1,4C1,4.553 0.553,5 0,5" style="fill:rgb(16,56,90);fill-rule:nonzero;"/>
        </g>
        <g transform="matrix(0,-1,-1,0,66,49.9629)">
            <path d="M-1,-1C-1.553,-1 -2,-0.552 -2,0C-2,0.552 -1.553,1 -1,1C-0.448,1 0,0.552 0,0C0,-0.552 -0.448,-1 -1,-1" style="fill:rgb(16,56,90);fill-rule:nonzero;"/>
        </g>
        <g transform="matrix(0,-1,-1,0,66,52.9629)">
            <path d="M-1,-1C-1.553,-1 -2,-0.552 -2,0C-2,0.552 -1.553,1 -1,1C-0.448,1 0,0.552 0,0C0,-0.552 -0.448,-1 -1,-1" style="fill:rgb(16,56,90);fill-rule:nonzero;"/>
        </g>
        <g transform="matrix(0,-1,-1,0,66,55.9629)">
            <path d="M-1,-1C-1.553,-1 -2,-0.552 -2,0C-2,0.552 -1.553,1 -1,1C-0.448,1 0,0.552 0,0C0,-0.552 -0.448,-1 -1,-1" style="fill:rgb(16,56,90);fill-rule:nonzero;"/>
        </g>
        <g transform="matrix(0,-1,-1,0,49,72.9629)">
            <path d="M-1,-1C-1.553,-1 -2,-0.552 -2,0C-2,0.552 -1.553,1 -1,1C-0.448,1 0,0.552 0,0C0,-0.552 -0.448,-1 -1,-1" style="fill:rgb(16,56,90);fill-rule:nonzero;"/>
        </g>
        <g transform="matrix(0,-1,-1,0,83,72.9629)">
            <path d="M-1,-1C-1.553,-1 -2,-0.553 -2,0C-2,0.553 -1.553,1 -1,1C-0.448,1 0,0.553 0,0C0,-0.553 -0.448,-1 -1,-1" style="fill:rgb(16,56,90);fill-rule:nonzero;"/>
        </g>
        <g transform="matrix(-0.761205,0.648511,0.648511,0.761205,68.9757,31.1377)">
            <path d="M-0.948,-6.848C2.124,-6.632 5.112,-5.729 7.78,-4.23L-0.948,3.206C-2.023,0.381 -2.471,-2.669 -2.247,-5.693C-2.191,-6.388 -1.592,-6.892 -0.948,-6.848" style="fill:rgb(239,76,78);fill-rule:nonzero;"/>
        </g>
        <g transform="matrix(1,0,0,1,69,63.9629)">
            <path d="M0,-3L0,-2C0,-1.447 -0.447,-1 -1,-1L-10,-1L-10,0L4,0L4,-3L0,-3Z" style="fill:rgb(219,52,64);fill-rule:nonzero;"/>
        </g>
        <g transform="matrix(1,0,0,1,0,32.926)">
            <rect x="81" y="28.037" width="4" height="3" style="fill:rgb(239,76,78);"/>
        </g>
        <g transform="matrix(1,0,0,1,83,63.9629)">
            <path d="M0,-3C0,-1.896 -0.896,-1 -2,-1L-2,0L2,0L2,-3L0,-3Z" style="fill:rgb(219,52,64);fill-rule:nonzero;"/>
        </g>
        <g transform="matrix(1,0,0,1,76,60.296)">
            <path d="M0,-4.798L-1,-5.465L-1,0.667L3,0.667L3,-0.333L1,-0.333C0.447,-0.333 0,-0.78 0,-1.333L0,-4.798Z" style="fill:rgb(145,172,195);fill-rule:nonzero;"/>
        </g>
        <g transform="matrix(1,0,0,1,55,57.8319)">
            <path d="M0,2.131C-0.552,2.131 -1,1.684 -1,1.131L-1,-1L-2,-0.334L-2,3.131L2,3.131L2,2.131L0,2.131Z" style="fill:rgb(145,172,195);fill-rule:nonzero;"/>
        </g>
        <g transform="matrix(-0.978488,0.206302,0.206302,0.978488,70.8236,32.0855)">
            <path d="M2.365,-7.391C2.715,-7.933 3.415,-8.1 3.945,-7.837C2.865,-5.226 2.329,-2.422 2.365,0.399L-0.734,1.052C-0.328,-1.919 0.701,-4.795 2.365,-7.391" style="fill:rgb(219,52,64);fill-rule:nonzero;"/>
        </g>
        <g transform="matrix(1,0,0,1,69,34.9629)">
            <path d="M0,24L4,24L4,5.051C4,3.325 3.768,1.636 3.362,0L-0.112,0C-0.046,0.679 0,1.361 0,2.051L0,24Z" style="fill:rgb(204,217,228);fill-rule:nonzero;"/>
        </g>
        <g transform="matrix(0,-1,-1,0,66,40.9634)">
            <path d="M-3,-3C-4.657,-3 -6,-1.657 -6,0C-6,1.657 -4.657,3 -3,3C-1.343,3 0,1.657 0,0C0,-1.657 -1.343,-3 -3,-3" style="fill:rgb(172,214,242);fill-rule:nonzero;"/>
        </g>
        <g transform="matrix(1,0,0,1,64,42.5254)">
            <path d="M0,2.438C0,0.781 1.343,-0.562 3,-0.562C3.571,-0.562 4.108,-0.397 4.562,-0.121C4.036,-0.984 3.086,-1.562 2,-1.562C0.343,-1.562 -1,-0.219 -1,1.438C-1,2.523 -0.422,3.474 0.442,4C0.165,3.546 0,3.009 0,2.438" style="fill:rgb(112,182,228);fill-rule:nonzero;"/>
        </g>
        <g transform="matrix(1,0,0,1,85,51.0059)">
            <path d="M0,7.957L0,1.2C0,1.155 -0.011,1.104 -0.029,1.049C-0.39,0 -2,0.369 -2,1.478L-2,7.957L0,7.957Z" style="fill:rgb(204,217,228);fill-rule:nonzero;"/>
        </g>
        <g transform="matrix(1,0,0,1,51,61.7931)">
            <path d="M0,-9.587C0,-10.121 -0.208,-10.623 -0.586,-11.002C-1.342,-11.757 -2.658,-11.757 -3.414,-11.002C-3.792,-10.623 -4,-10.121 -4,-9.587L-4,2.17L0,2.17L0,-9.587Z" style="fill:rgb(235,238,247);fill-rule:nonzero;"/>
        </g>
        <g transform="matrix(1,0,0,1,0,32.926)">
            <rect x="47" y="28.037" width="4" height="3" style="fill:rgb(239,76,78);"/>
        </g>
        <g transform="matrix(1,0,0,1,49,63.9629)">
            <path d="M0,-3C0,-1.896 -0.896,-1 -2,-1L-2,0L2,0L2,-3L0,-3Z" style="fill:rgb(219,52,64);fill-rule:nonzero;"/>
        </g>
        <g transform="matrix(1,0,0,1,0,-3.346)">
            <path d="M81,64.309L85,64.309L85,67.309L81,67.309L81,64.309ZM75,64.309L75,58.178L79,60.844L79,64.309L75,64.309ZM81,55.552C81,55.018 81.208,54.516 81.586,54.137C82.342,53.382 83.658,53.382 84.414,54.137C84.792,54.516 85,55.018 85,55.552L85,62.309L81,62.309L81,55.552ZM73,62.309L59,62.309L59,43.569C59,41.784 59.258,40.02 59.707,38.309L72.362,38.309C72.768,39.945 73,41.634 73,43.36L73,62.309ZM73,67.309L59,67.309L59,64.309L73,64.309L73,67.309ZM65.257,28.656C65.715,28.207 66.5,28.197 66.984,28.688C69.148,30.884 70.748,33.486 71.759,36.309L60.338,36.309C61.401,33.45 63.058,30.815 65.257,28.656M57,64.309L53,64.309L53,60.844L57,58.178L57,64.309ZM51,67.309L47,67.309L47,64.309L51,64.309L51,67.309ZM47.586,54.137C48.342,53.382 49.658,53.382 50.414,54.137C50.792,54.516 51,55.018 51,55.552L51,62.309L47,62.309L47,55.552C47,55.018 47.208,54.516 47.586,54.137M85.828,52.723C84.318,51.212 81.682,51.212 80.172,52.723C79.416,53.48 79,54.484 79,55.552L79,58.441L75,55.774L75,43.36C75,37.305 72.659,31.596 68.392,27.266C67.197,26.054 65.068,26.037 63.855,27.229C59.499,31.507 57,37.463 57,43.569L57,55.774L53,58.441L53,55.552C53,54.484 52.584,53.48 51.828,52.723C50.318,51.212 47.682,51.212 46.172,52.723C45.416,53.48 45,54.484 45,55.552L45,68.309C45,68.862 45.447,69.309 46,69.309L52,69.309C52.553,69.309 53,68.862 53,68.309L53,66.309L57,66.309L57,68.309C57,68.862 57.448,69.309 58,69.309L74,69.309C74.553,69.309 75,68.862 75,68.309L75,66.309L79,66.309L79,68.309C79,68.862 79.447,69.309 80,69.309L86,69.309C86.553,69.309 87,68.862 87,68.309L87,55.552C87,54.484 86.584,53.48 85.828,52.723" style="fill:rgb(16,56,90);fill-rule:nonzero;"/>
        </g>
        <g transform="matrix(1,0,0,1,66,46.9634)">
            <path d="M0,-6C-1.654,-6 -3,-4.654 -3,-3C-3,-1.346 -1.654,0 0,0C1.654,0 3,-1.346 3,-3C3,-4.654 1.654,-6 0,-6M0,2C-2.757,2 -5,-0.243 -5,-3C-5,-5.757 -2.757,-8 0,-8C2.757,-8 5,-5.757 5,-3C5,-0.243 2.757,2 0,2" style="fill:rgb(16,56,90);fill-rule:nonzero;"/>
        </g>
        <g transform="matrix(1,0,0,1,51,51.0059)">
            <path d="M0,7.957L0,1.2C0,1.155 -0.01,1.104 -0.029,1.049C-0.39,0 -2,0.369 -2,1.478L-2,7.957L0,7.957Z" style="fill:rgb(204,217,228);fill-rule:nonzero;"/>
        </g>
    </g>
</svg>
