<?xml version="1.0" encoding="UTF-8" standalone="no"?>
<!DOCTYPE svg PUBLIC "-//W3C//DTD SVG 1.1//EN" "http://www.w3.org/Graphics/SVG/1.1/DTD/svg11.dtd">
<svg width="100%" height="100%" viewBox="0 0 86 100" version="1.1" xmlns="http://www.w3.org/2000/svg" xmlns:xlink="http://www.w3.org/1999/xlink" xml:space="preserve" xmlns:serif="http://www.serif.com/" style="fill-rule:evenodd;clip-rule:evenodd;stroke-linejoin:round;stroke-miterlimit:2;">
    <g id="Layer-1" serif:id="Layer 1">
        <g transform="matrix(1,0,0,1,80,84)">
            <path d="M0,-8L-74,-8L-74,-3C-74,-1.346 -72.654,0 -71,0L-3,0C-1.346,0 0,-1.346 0,-3L0,-8Z" style="fill:rgb(211,226,236);fill-rule:nonzero;"/>
        </g>
        <g transform="matrix(1,0,0,1,43,53)">
            <path d="M0,9C-0.552,9 -1,8.553 -1,8L-1,1C-1,0.447 -0.552,0 0,0C0.552,0 1,0.447 1,1L1,8C1,8.553 0.552,9 0,9" style="fill:rgb(16,56,90);fill-rule:nonzero;"/>
        </g>
        <g transform="matrix(1,0,0,1,43,63)">
            <path d="M0,5C-0.552,5 -1,4.553 -1,4L-1,1C-1,0.447 -0.552,0 0,0C0.552,0 1,0.447 1,1L1,4C1,4.553 0.552,5 0,5" style="fill:rgb(16,56,90);fill-rule:nonzero;"/>
        </g>
        <g transform="matrix(1,0,0,1,36,5.888)">
            <path d="M0,39.112L14,39.112L14,15.163C14,9.637 11.863,4.426 7.984,0.49C7.5,0 6.715,0.01 6.257,0.459C2.28,4.363 0,9.799 0,15.372L0,39.112Z" style="fill:rgb(235,238,247);fill-rule:nonzero;"/>
        </g>
        <g transform="matrix(1,0,0,1,45.9521,50)">
            <path d="M0,-3L-5.937,-3L-6.233,-2.354C-6.578,-1.601 -6.799,-0.812 -6.896,0L0.983,0C0.878,-0.824 0.644,-1.634 0.291,-2.383L0,-3Z" style="fill:rgb(175,195,215);fill-rule:nonzero;"/>
        </g>
        <g transform="matrix(1,0,0,1,39.0557,47)">
            <path d="M0,3L7.88,3C7.774,2.176 7.54,1.366 7.187,0.617L6.896,0L0.959,0L0.664,0.646C0.319,1.399 0.097,2.188 0,3M8.944,5L-1.056,5C-1.608,5 -2.056,4.553 -2.056,4L-2.056,3.946C-2.056,2.511 -1.752,1.12 -1.155,-0.186L-0.592,-1.416C-0.43,-1.772 -0.074,-2 0.317,-2L7.53,-2C7.917,-2 8.27,-1.776 8.435,-1.426L8.996,-0.235C9.616,1.081 9.944,2.545 9.944,4C9.944,4.553 9.497,5 8.944,5" style="fill:rgb(16,56,90);fill-rule:nonzero;"/>
        </g>
        <g transform="matrix(1,0,0,1,45.668,47.0154)">
            <path d="M0,2.97L0.004,2.985L1.268,2.985C1.162,2.16 0.928,1.351 0.575,0.603L0.284,-0.015L-5.653,-0.015L-5.949,0.631C-6.002,0.746 -6.052,0.868 -6.099,0.985L-2.671,0.985C-1.441,0.985 -0.321,1.783 0,2.97" style="fill:rgb(145,172,195);fill-rule:nonzero;"/>
        </g>
        <g transform="matrix(0,-1,-1,0,35.0655,36.9345)">
            <path d="M-5.066,1.066L1.066,1.066L-1.601,5.066L-5.066,5.066L-5.066,1.066Z" style="fill:rgb(175,195,215);fill-rule:nonzero;"/>
        </g>
        <g transform="matrix(1,0,0,1,47,53)">
            <path d="M0,5C-0.553,5 -1,4.553 -1,4L-1,1C-1,0.447 -0.553,0 0,0C0.553,0 1,0.447 1,1L1,4C1,4.553 0.553,5 0,5" style="fill:rgb(16,56,90);fill-rule:nonzero;"/>
        </g>
        <g transform="matrix(1,0,0,1,39,53)">
            <path d="M0,5C-0.552,5 -1,4.553 -1,4L-1,1C-1,0.447 -0.552,0 0,0C0.552,0 1,0.447 1,1L1,4C1,4.553 0.552,5 0,5" style="fill:rgb(16,56,90);fill-rule:nonzero;"/>
        </g>
        <g transform="matrix(1,0,0,1,26,48)">
            <path d="M0,5C-0.552,5 -1,4.553 -1,4L-1,1C-1,0.448 -0.552,0 0,0C0.552,0 1,0.448 1,1L1,4C1,4.553 0.552,5 0,5" style="fill:rgb(16,56,90);fill-rule:nonzero;"/>
        </g>
        <g transform="matrix(-1,0,0,1,86,-13)">
            <rect x="36" y="55" width="14" height="3" style="fill:rgb(239,76,78);"/>
        </g>
        <g transform="matrix(0,-1,-1,0,57.0655,36.9345)">
            <path d="M-5.066,1.066L-1.601,1.066L1.066,5.066L-5.066,5.066L-5.066,1.066Z" style="fill:rgb(175,195,215);fill-rule:nonzero;"/>
        </g>
        <g transform="matrix(1,0,0,1,62,42.8307)">
            <path d="M0,-9.588C0,-10.122 -0.208,-10.624 -0.586,-11.003C-1.342,-11.757 -2.658,-11.757 -3.414,-11.003C-3.792,-10.624 -4,-10.122 -4,-9.588L-4,2.169L0,2.169L0,-9.588Z" style="fill:rgb(235,238,247);fill-rule:nonzero;"/>
        </g>
        <g transform="matrix(1,0,0,1,60,48)">
            <path d="M0,5C-0.553,5 -1,4.553 -1,4L-1,1C-1,0.448 -0.553,0 0,0C0.553,0 1,0.448 1,1L1,4C1,4.553 0.553,5 0,5" style="fill:rgb(16,56,90);fill-rule:nonzero;"/>
        </g>
        <g transform="matrix(0,-1,-1,0,43,31)">
            <path d="M-1,-1C-1.552,-1 -2,-0.552 -2,0C-2,0.552 -1.552,1 -1,1C-0.448,1 0,0.552 0,0C0,-0.552 -0.448,-1 -1,-1" style="fill:rgb(16,56,90);fill-rule:nonzero;"/>
        </g>
        <g transform="matrix(0,-1,-1,0,43,34)">
            <path d="M-1,-1C-1.552,-1 -2,-0.552 -2,0C-2,0.552 -1.552,1 -1,1C-0.448,1 0,0.552 0,0C0,-0.552 -0.448,-1 -1,-1" style="fill:rgb(16,56,90);fill-rule:nonzero;"/>
        </g>
        <g transform="matrix(0,-1,-1,0,43,37)">
            <path d="M-1,-1C-1.552,-1 -2,-0.552 -2,0C-2,0.552 -1.552,1 -1,1C-0.448,1 0,0.552 0,0C0,-0.552 -0.448,-1 -1,-1" style="fill:rgb(16,56,90);fill-rule:nonzero;"/>
        </g>
        <g transform="matrix(0,-1,-1,0,26,54)">
            <path d="M-1,-1C-1.553,-1 -2,-0.552 -2,0C-2,0.552 -1.553,1 -1,1C-0.447,1 0,0.552 0,0C0,-0.552 -0.447,-1 -1,-1" style="fill:rgb(16,56,90);fill-rule:nonzero;"/>
        </g>
        <g transform="matrix(0,-1,-1,0,60,54)">
            <path d="M-1,-1C-1.553,-1 -2,-0.553 -2,0C-2,0.553 -1.553,1 -1,1C-0.447,1 0,0.553 0,0C0,-0.553 -0.447,-1 -1,-1" style="fill:rgb(16,56,90);fill-rule:nonzero;"/>
        </g>
        <g transform="matrix(-0.761205,0.648511,0.648511,0.761205,45.9757,12.1743)">
            <path d="M-0.948,-6.848C2.124,-6.632 5.112,-5.729 7.78,-4.23L-0.948,3.206C-2.023,0.381 -2.471,-2.669 -2.247,-5.693C-2.191,-6.388 -1.592,-6.892 -0.948,-6.848" style="fill:rgb(239,76,78);fill-rule:nonzero;"/>
        </g>
        <g transform="matrix(1,0,0,1,46,45)">
            <path d="M0,-3L0,-2C0,-1.448 -0.447,-1 -1,-1L-10,-1L-10,0L4,0L4,-3L0,-3Z" style="fill:rgb(219,52,64);fill-rule:nonzero;"/>
        </g>
        <g transform="matrix(1,0,0,1,0,-13)">
            <rect x="58" y="55" width="4" height="3" style="fill:rgb(239,76,78);"/>
        </g>
        <g transform="matrix(1,0,0,1,60,45)">
            <path d="M0,-3C0,-1.896 -0.896,-1 -2,-1L-2,0L2,0L2,-3L0,-3Z" style="fill:rgb(219,52,64);fill-rule:nonzero;"/>
        </g>
        <g transform="matrix(1,0,0,1,53,41.3332)">
            <path d="M0,-4.798L-1,-5.465L-1,0.667L3,0.667L3,-0.333L1,-0.333C0.447,-0.333 0,-0.781 0,-1.333L0,-4.798Z" style="fill:rgb(145,172,195);fill-rule:nonzero;"/>
        </g>
        <g transform="matrix(1,0,0,1,32,38.868)">
            <path d="M0,2.132C-0.552,2.132 -1,1.684 -1,1.132L-1,-1L-2,-0.333L-2,3.132L2,3.132L2,2.132L0,2.132Z" style="fill:rgb(145,172,195);fill-rule:nonzero;"/>
        </g>
        <g transform="matrix(-0.978488,0.206302,0.206302,0.978488,47.8236,13.1221)">
            <path d="M2.365,-7.391C2.715,-7.933 3.415,-8.1 3.945,-7.837C2.865,-5.226 2.329,-2.422 2.365,0.399L-0.734,1.052C-0.328,-1.919 0.701,-4.795 2.365,-7.391" style="fill:rgb(219,52,64);fill-rule:nonzero;"/>
        </g>
        <g transform="matrix(0,-1,-1,0,43,78)">
            <path d="M-2,-2C-3.104,-2 -4,-1.104 -4,0C-4,1.104 -3.104,2 -2,2C-0.896,2 0,1.104 0,0C0,-1.104 -0.896,-2 -2,-2" style="fill:rgb(16,56,90);fill-rule:nonzero;"/>
        </g>
        <g transform="matrix(1,0,0,1,51,61)">
            <path d="M0,6C-2.757,6 -5,3.757 -5,1C-5,0.447 -4.553,0 -4,0C-3.447,0 -3,0.447 -3,1C-3,2.654 -1.654,4 0,4C0.553,4 1,4.447 1,5C1,5.553 0.553,6 0,6" style="fill:rgb(16,56,90);fill-rule:nonzero;"/>
        </g>
        <g transform="matrix(1,0,0,1,37,94)">
            <path d="M0,-8L0,-2C0,-1.272 -0.195,-0.589 -0.537,0L12.537,0C12.195,-0.589 12,-1.272 12,-2L12,-8L0,-8Z" style="fill:rgb(211,226,236);fill-rule:nonzero;"/>
        </g>
        <g transform="matrix(1,0,0,1,35,61)">
            <path d="M0,6C-0.552,6 -1,5.553 -1,5C-1,4.447 -0.552,4 0,4C1.654,4 3,2.654 3,1C3,0.447 3.448,0 4,0C4.552,0 5,0.447 5,1C5,3.757 2.757,6 0,6" style="fill:rgb(16,56,90);fill-rule:nonzero;"/>
        </g>
        <g transform="matrix(1,0,0,1,80,47)">
            <path d="M0,34C0,35.654 -1.346,37 -3,37L-71,37C-72.654,37 -74,35.654 -74,34L-74,29L0,29L0,34ZM-30.463,47L-43.537,47C-43.195,46.411 -43,45.728 -43,45L-43,39L-31,39L-31,45C-31,45.728 -30.805,46.411 -30.463,47M-3,-15L-11,-15C-11.553,-15 -12,-14.552 -12,-14C-12,-13.448 -11.553,-13 -11,-13L-3,-13C-1.346,-13 0,-11.654 0,-10L0,27L-74,27L-74,-10C-74,-11.654 -72.654,-13 -71,-13L-63,-13C-62.448,-13 -62,-13.448 -62,-14C-62,-14.552 -62.448,-15 -63,-15L-71,-15C-73.757,-15 -76,-12.757 -76,-10L-76,34C-76,36.757 -73.757,39 -71,39L-45,39L-45,45C-45,46.103 -45.897,47 -47,47L-51,47C-51.552,47 -52,47.447 -52,48C-52,48.553 -51.552,49 -51,49L-23,49C-22.447,49 -22,48.553 -22,48C-22,47.447 -22.447,47 -23,47L-27,47C-28.103,47 -29,46.103 -29,45L-29,39L-3,39C-0.243,39 2,36.757 2,34L2,-10C2,-12.757 -0.243,-15 -3,-15" style="fill:rgb(16,56,90);fill-rule:nonzero;"/>
        </g>
        <g transform="matrix(1,0,0,1,49,88)">
            <path d="M0,4L0,-2L-12,-2L-12,0L-3.537,0C-2.433,0 -1.537,0.896 -1.537,2L-1.537,4C-1.537,4.728 -1.342,5.411 -1,6L0.537,6C0.195,5.411 0,4.728 0,4" style="fill:rgb(175,195,215);fill-rule:nonzero;"/>
        </g>
        <g transform="matrix(1,0,0,1,15,69)">
            <path d="M0,-9C-2.953,-9 -5.479,-7.159 -6.506,-4.566C-7.408,-5.451 -8.64,-6 -10,-6C-10.552,-6 -11,-5.553 -11,-5C-11,-4.447 -10.552,-4 -10,-4C-8.346,-4 -7,-2.654 -7,-1C-7,-0.447 -6.552,0 -6,0C-5.448,0 -5,-0.447 -5,-1L-5,-2C-5,-4.757 -2.757,-7 0,-7C0.552,-7 1,-7.447 1,-8C1,-8.553 0.552,-9 0,-9" style="fill:rgb(16,56,90);fill-rule:nonzero;"/>
        </g>
        <g transform="matrix(1,0,0,1,81,66)">
            <path d="M0,-3C-1.36,-3 -2.592,-2.451 -3.494,-1.566C-4.521,-4.159 -7.047,-6 -10,-6C-10.553,-6 -11,-5.553 -11,-5C-11,-4.447 -10.553,-4 -10,-4C-7.243,-4 -5,-1.757 -5,1L-5,2C-5,2.553 -4.553,3 -4,3C-3.447,3 -3,2.553 -3,2C-3,0.346 -1.654,-1 0,-1C0.553,-1 1,-1.447 1,-2C1,-2.553 0.553,-3 0,-3" style="fill:rgb(16,56,90);fill-rule:nonzero;"/>
        </g>
        <g transform="matrix(1,0,0,1,70,65)">
            <path d="M0,-1C-0.778,-1 -1.506,-0.806 -2.163,-0.487C-2.848,-3.635 -5.651,-6 -9,-6C-12.859,-6 -16,-2.859 -16,1C-16,1.553 -15.553,2 -15,2C-14.447,2 -14,1.553 -14,1C-14,-1.757 -11.757,-4 -9,-4C-6.243,-4 -4,-1.757 -4,1L-4,1.031C-4.62,1.863 -5,2.885 -5,4C-5,4.553 -4.553,5 -4,5C-3.447,5 -3,4.553 -3,4C-3,2.346 -1.654,1 0,1C0.553,1 1,0.553 1,0C1,-0.553 0.553,-1 0,-1" style="fill:rgb(16,56,90);fill-rule:nonzero;"/>
        </g>
        <g transform="matrix(1,0,0,1,25,70)">
            <path d="M0,-11C-3.349,-11 -6.153,-8.635 -6.837,-5.487C-7.495,-5.806 -8.222,-6 -9,-6C-9.552,-6 -10,-5.553 -10,-5C-10,-4.447 -9.552,-4 -9,-4C-7.346,-4 -6,-2.654 -6,-1C-6,-0.447 -5.552,0 -5,0C-4.448,0 -4,-0.447 -4,-1C-4,-2.115 -4.38,-3.137 -5,-3.969L-5,-4C-5,-6.757 -2.757,-9 0,-9C2.757,-9 5,-6.757 5,-4C5,-3.447 5.448,-3 6,-3C6.552,-3 7,-3.447 7,-4C7,-7.859 3.86,-11 0,-11" style="fill:rgb(16,56,90);fill-rule:nonzero;"/>
        </g>
        <g transform="matrix(1,0,0,1,46,16)">
            <path d="M0,24L4,24L4,5.051C4,3.324 3.768,1.636 3.362,0L-0.112,0C-0.046,0.678 0,1.36 0,2.051L0,24Z" style="fill:rgb(204,217,228);fill-rule:nonzero;"/>
        </g>
        <g transform="matrix(0,-1,-1,0,43,22)">
            <path d="M-3,-3C-4.657,-3 -6,-1.657 -6,0C-6,1.657 -4.657,3 -3,3C-1.343,3 0,1.657 0,0C0,-1.657 -1.343,-3 -3,-3" style="fill:rgb(172,214,242);fill-rule:nonzero;"/>
        </g>
        <g transform="matrix(1,0,0,1,41,23.562)">
            <path d="M0,2.438C0,0.781 1.343,-0.562 3,-0.562C3.571,-0.562 4.108,-0.397 4.562,-0.12C4.036,-0.984 3.086,-1.562 2,-1.562C0.343,-1.562 -1,-0.219 -1,1.438C-1,2.523 -0.422,3.474 0.442,4C0.165,3.546 0,3.009 0,2.438" style="fill:rgb(112,182,228);fill-rule:nonzero;"/>
        </g>
        <g transform="matrix(1,0,0,1,62,32.043)">
            <path d="M0,7.957L0,1.2C0,1.155 -0.011,1.104 -0.029,1.049C-0.39,0 -2,0.369 -2,1.478L-2,7.957L0,7.957Z" style="fill:rgb(204,217,228);fill-rule:nonzero;"/>
        </g>
        <g transform="matrix(1,0,0,1,28,42.8307)">
            <path d="M0,-9.588C0,-10.122 -0.208,-10.624 -0.586,-11.003C-1.342,-11.757 -2.658,-11.757 -3.414,-11.003C-3.792,-10.624 -4,-10.122 -4,-9.588L-4,2.169L0,2.169L0,-9.588Z" style="fill:rgb(235,238,247);fill-rule:nonzero;"/>
        </g>
        <g transform="matrix(1,0,0,1,0,-13)">
            <rect x="24" y="55" width="4" height="3" style="fill:rgb(239,76,78);"/>
        </g>
        <g transform="matrix(1,0,0,1,26,45)">
            <path d="M0,-3C0,-1.896 -0.896,-1 -2,-1L-2,0L2,0L2,-3L0,-3Z" style="fill:rgb(219,52,64);fill-rule:nonzero;"/>
        </g>
        <g transform="matrix(1,0,0,1,0,-49.272)">
            <path d="M58,91.272L62,91.272L62,94.272L58,94.272L58,91.272ZM52,91.272L52,85.141L56,87.807L56,91.272L52,91.272ZM58,82.515C58,81.981 58.208,81.479 58.586,81.1C59.342,80.345 60.658,80.345 61.414,81.1C61.792,81.479 62,81.981 62,82.515L62,89.272L58,89.272L58,82.515ZM50,89.272L36,89.272L36,70.532C36,68.747 36.258,66.983 36.707,65.272L49.362,65.272C49.768,66.908 50,68.596 50,70.323L50,89.272ZM50,94.272L36,94.272L36,91.272L50,91.272L50,94.272ZM42.257,55.619C42.715,55.17 43.5,55.16 43.984,55.65C46.148,57.847 47.748,60.448 48.759,63.272L37.338,63.272C38.401,60.413 40.058,57.777 42.257,55.619M34,91.272L30,91.272L30,87.807L34,85.141L34,91.272ZM28,94.272L24,94.272L24,91.272L28,91.272L28,94.272ZM24.586,81.1C25.342,80.345 26.658,80.345 27.414,81.1C27.792,81.479 28,81.981 28,82.515L28,89.272L24,89.272L24,82.515C24,81.981 24.208,81.479 24.586,81.1M62.828,79.686C61.318,78.175 58.682,78.175 57.172,79.686C56.416,80.442 56,81.447 56,82.515L56,85.403L52,82.737L52,70.323C52,64.268 49.659,58.559 45.392,54.229C44.197,53.017 42.068,53 40.855,54.192C36.499,58.469 34,64.425 34,70.532L34,82.737L30,85.403L30,82.515C30,81.447 29.584,80.442 28.828,79.686C27.318,78.175 24.682,78.175 23.172,79.686C22.416,80.442 22,81.447 22,82.515L22,95.272C22,95.824 22.447,96.272 23,96.272L29,96.272C29.553,96.272 30,95.824 30,95.272L30,93.272L34,93.272L34,95.272C34,95.824 34.448,96.272 35,96.272L51,96.272C51.553,96.272 52,95.824 52,95.272L52,93.272L56,93.272L56,95.272C56,95.824 56.447,96.272 57,96.272L63,96.272C63.553,96.272 64,95.824 64,95.272L64,82.515C64,81.447 63.584,80.442 62.828,79.686" style="fill:rgb(16,56,90);fill-rule:nonzero;"/>
        </g>
        <g transform="matrix(1,0,0,1,43,28)">
            <path d="M0,-6C-1.654,-6 -3,-4.654 -3,-3C-3,-1.346 -1.654,0 0,0C1.654,0 3,-1.346 3,-3C3,-4.654 1.654,-6 0,-6M0,2C-2.757,2 -5,-0.243 -5,-3C-5,-5.757 -2.757,-8 0,-8C2.757,-8 5,-5.757 5,-3C5,-0.243 2.757,2 0,2" style="fill:rgb(16,56,90);fill-rule:nonzero;"/>
        </g>
        <g transform="matrix(1,0,0,1,28,32.043)">
            <path d="M0,7.957L0,1.2C0,1.155 -0.01,1.104 -0.029,1.049C-0.39,0 -2,0.369 -2,1.478L-2,7.957L0,7.957Z" style="fill:rgb(204,217,228);fill-rule:nonzero;"/>
        </g>
    </g>
</svg>
